#!OML:ASF F:\VICON\USERDATA\INSTALL\rory3\rory3.ASF
:FULLY-SPECIFIED
:DEGREES
723
root -16.216 17.4181 9.29273 -363.04 -0.715957 -364.818
lowerback 12.0769 1.63366 -0.545198
upperback 0.0653601 2.16004 0.932836
thorax -6.76978 1.08968 0.908137
lowerneck -17.2803 -7.21924 -12.4091
upperneck 30.4606 -10.3003 10.8921
head 14.6983 -4.49102 4.73116
rclavicle -1.22253e-014 -2.78299e-015
rhumerus -35.3504 -16.7125 -79.4024
rradius 29.5879
rwrist 7.28982
rhand -18.9283 9.26745
rfingers 7.12502
rthumb 7.37441 -20.584
lclavicle -1.22253e-014 -2.78299e-015
lhumerus -32.7967 11.9077 72.2829
lradius 29.1674
lwrist -5.44005
lhand -21.2787 26.7345
lfingers 7.12502
lthumb 5.10524 56.653
rfemur -1.47314 -0.535798 12.6879
rtibia 22.4835
rfoot -14.6738 0.219579
rtoes -27.2016
lfemur -0.981684 -13.2509 4.49145
ltibia 23.7079
lfoot -2.8562 0.820378
ltoes -21.4758
724
root -16.3294 17.4392 9.27447 -362.954 -0.870916 -365.017
lowerback 12.167 1.64547 -0.174604
upperback 0.0164519 2.22496 0.884725
thorax -6.85768 1.10806 0.633851
lowerneck -17.4833 -7.18792 -12.7199
upperneck 30.8387 -10.3759 11.4751
head 14.9974 -4.48072 5.03853
rclavicle -3.2551e-015 5.56597e-015
rhumerus -35.1252 -16.3117 -79.6516
rradius 29.4366
rwrist 7.47471
rhand -18.7748 9.20218
rfingers 7.12502
rthumb 7.52249 -20.6441
lclavicle -3.2551e-015 5.56597e-015
lhumerus -32.952 12.4611 72.1415
lradius 29.056
lwrist -5.18477
lhand -21.1209 27.6884
lfingers 7.12502
lthumb 5.25759 57.6032
rfemur -1.55189 -0.940242 13.1913
rtibia 22.2307
rfoot -14.8534 0.87903
rtoes -27.623
lfemur -1.5192 -13.4187 4.71362
ltibia 24.6618
lfoot -2.02707 1.91514
ltoes -16.8482
725
root -16.4374 17.4574 9.26231 -362.904 -1.00368 -364.91
lowerback 12.1792 1.65498 -0.149641
upperback 0.0434417 2.23648 0.823791
thorax -6.8325 1.11168 0.553584
lowerneck -17.758 -7.14765 -12.9019
upperneck 31.069 -10.3383 11.7322
head 15.1946 -4.44538 5.19955
rclavicle 2.06239e-014 2.38542e-015
rhumerus -34.8051 -15.9184 -79.7901
rradius 29.2448
rwrist 7.7471
rhand -18.4581 9.24441
rfingers 7.12502
rthumb 7.82824 -20.5907
lclavicle 2.06239e-014 2.38542e-015
lhumerus -33.1217 13.01 72.114
lradius 28.9873
lwrist -5.01117
lhand -21.4517 27.1135
lfingers 7.12502
lthumb 4.93825 57.036
rfemur -1.53819 -1.34604 13.3079
rtibia 21.9192
rfoot -15.0626 1.57131
rtoes -27.5982
lfemur -1.94463 -13.602 4.48373
ltibia 25.6099
lfoot -1.56275 3.20854
ltoes -13.6522
726
root -16.5412 17.4883 9.25498 -362.795 -1.14336 -364.709
lowerback 12.0113 1.69174 -0.212653
upperback 0.117308 2.27068 0.755319
thorax -6.65934 1.1296 0.516926
lowerneck -17.9542 -7.17923 -12.9679
upperneck 31.1051 -10.3632 11.7884
head 15.2707 -4.44993 5.23011
rclavicle -3.97569e-016 -9.14409e-015
rhumerus -34.3812 -15.6443 -79.8879
rradius 29.0633
rwrist 7.9167
rhand -18.4264 9.27246
rfingers 7.12502
rthumb 7.8588 -20.5615
lclavicle -3.97569e-016 -9.14409e-015
lhumerus -33.1697 13.6503 72.1643
lradius 28.9674
lwrist -5.18492
lhand -21.6413 26.0936
lfingers 7.12502
lthumb 4.75515 56.0203
rfemur -1.61885 -1.70303 13.322
rtibia 21.6967
rfoot -15.3426 2.31057
rtoes -26.7043
lfemur -2.41158 -13.803 4.08216
ltibia 26.4437
lfoot -1.55732 4.56029
ltoes -9.10684
727
root -16.6375 17.5184 9.24662 -362.721 -1.29352 -364.429
lowerback 11.8856 1.74677 -0.273371
upperback 0.169776 2.32621 0.628524
thorax -6.53058 1.1568 0.412685
lowerneck -18.0372 -7.18303 -12.9368
upperneck 31.1325 -10.3635 11.7657
head 15.2988 -4.44605 5.21487
rclavicle 1.80397e-014 7.55382e-015
rhumerus -34.0054 -15.1142 -80.0704
rradius 28.9152
rwrist 7.73734
rhand -18.4835 9.10692
rfingers 7.12502
rthumb 7.80372 -20.7291
lclavicle 1.80397e-014 7.55382e-015
lhumerus -33.1983 14.053 72.3266
lradius 28.9452
lwrist -5.11356
lhand -22.0356 25.3988
lfingers 7.12502
lthumb 4.37444 55.3336
rfemur -1.71633 -1.84238 13.2596
rtibia 21.5824
rfoot -15.5681 2.89276
rtoes -25.328
lfemur -2.76608 -14.0117 3.50194
ltibia 27.165
lfoot -2.11496 5.82138
ltoes -5.08471
